<svg width="317" height="272" viewBox="0 0 317 272" fill="none" xmlns="http://www.w3.org/2000/svg">
<g clip-path="url(#clip0_703_164)">
<path d="M93.1602 269.162C98.249 264.852 101.34 258.043 100.529 251.414C99.7188 244.786 94.698 238.693 88.1854 237.285C81.6728 235.877 74.2488 239.774 72.2707 246.151C71.1821 233.856 69.9276 221.047 63.4066 210.577C57.5019 201.097 47.2749 194.314 36.1911 193.1C25.1073 191.887 13.4375 196.47 6.52497 205.239C-0.38757 214.008 -2.08007 226.756 2.76129 236.823C6.32776 244.24 12.8984 249.759 19.7829 254.249C42.029 268.636 68.7103 274.487 94.9176 270.725" fill="#F2F2F2"/>
<path d="M17.4856 196.724C26.631 204.191 35.021 212.542 42.5342 221.656C54.2924 235.871 63.8072 251.809 70.7472 268.914C71.2552 270.162 69.2337 270.705 68.7313 269.471C64.318 258.656 58.8578 248.301 52.4292 238.554C42.4045 223.328 30.1228 209.722 16.0073 198.206C14.9636 197.354 16.4505 195.879 17.4856 196.724Z" fill="white"/>
<path d="M96.6751 269.162C91.5862 264.852 88.4952 258.043 89.3058 251.414C90.1165 244.786 95.1372 238.693 101.65 237.285C108.162 235.877 115.586 239.774 117.564 246.151C118.653 233.856 119.908 221.047 126.429 210.577C132.333 201.097 142.56 194.314 153.644 193.1C164.728 191.887 176.398 196.47 183.31 205.239C190.223 214.008 191.915 226.756 187.074 236.823C183.507 244.24 176.937 249.759 170.052 254.249C147.806 268.636 121.125 274.487 94.9176 270.725" fill="#F2F2F2"/>
<path d="M172.35 196.724C163.204 204.191 154.814 212.542 147.301 221.656C135.543 235.871 126.028 251.809 119.088 268.914C118.58 270.162 120.602 270.705 121.104 269.471C132.459 241.672 150.586 217.17 173.828 198.206C174.872 197.354 173.385 195.879 172.35 196.724Z" fill="white"/>
<path d="M111.776 122.359C121.19 122.359 128.822 114.709 128.822 105.273C128.822 95.8361 121.19 88.1864 111.776 88.1864C102.362 88.1864 94.7299 95.8361 94.7299 105.273C94.7299 114.709 102.362 122.359 111.776 122.359Z" fill="#F2F2F2"/>
<path d="M59.2185 46.3738H176.661V52.8143H74.211C68.1874 52.8143 62.2227 54.0035 56.6576 56.3141C51.0924 58.6247 46.0358 62.0113 41.7765 66.2807C37.5171 70.5501 34.1384 75.6186 31.8332 81.1968C29.5281 86.7751 28.3416 92.7538 28.3416 98.7916V171.964H15.4909C14.9228 171.964 14.3781 171.737 13.9764 171.335C13.5747 170.932 13.3491 170.386 13.3491 169.817V92.3511C13.3491 86.3133 14.5355 80.3345 16.8407 74.7563C19.1458 69.1781 22.5245 64.1096 26.7839 59.8402C31.0433 55.5708 36.0999 52.1841 41.665 49.8736C47.2302 47.563 53.1948 46.3738 59.2185 46.3738Z" fill="#F2F2F2"/>
<path d="M81.808 269.52V171.688H110.401V269.52C110.401 270.177 110.14 270.808 109.676 271.273C109.212 271.738 108.583 271.999 107.927 272H84.2824C83.6264 271.999 82.9974 271.738 82.5335 271.273C82.0697 270.808 81.8087 270.177 81.808 269.52Z" fill="#3F3D56"/>
<path d="M7.30051 169.759V90.2067C7.31477 77.5425 12.3401 65.4011 21.274 56.4462C30.2079 47.4912 42.3208 42.454 54.9552 42.4397H176.111V172.515H10.0499C9.32094 172.514 8.62213 172.223 8.1067 171.707C7.59128 171.19 7.30134 170.489 7.30051 169.759ZM175.011 43.542H54.9552C42.6123 43.5561 30.779 48.477 22.0513 57.2253C13.3236 65.9736 8.4142 77.8348 8.40025 90.2067V169.759C8.40073 170.197 8.57468 170.618 8.88394 170.928C9.19319 171.238 9.6125 171.412 10.0499 171.412H175.011V43.542Z" fill="#3F3D56"/>
<path d="M111.776 114.091C109.152 114.088 106.636 113.042 104.78 111.182C102.925 109.322 101.881 106.801 101.878 104.17V33.0699C101.878 32.6315 101.704 32.2112 101.395 31.9012C101.085 31.5913 100.666 31.4169 100.229 31.4164H61.7377C61.0088 31.4156 60.31 31.125 59.7946 30.6083C59.2791 30.0917 58.9892 29.3912 58.9883 28.6606V2.75583C58.9892 2.0252 59.2791 1.32473 59.7946 0.808094C60.31 0.29146 61.0088 0.00084606 61.7377 0H118.924C119.653 0.00083587 120.352 0.291449 120.867 0.808086C121.383 1.32472 121.673 2.02519 121.674 2.75583V104.17C121.671 106.801 120.627 109.322 118.771 111.182C116.916 113.042 114.4 114.088 111.776 114.091Z" fill="#C28E5B"/>
<path d="M180.51 41.3373C188.805 41.3199 196.767 44.6062 202.645 50.4733C208.523 56.3403 211.835 64.3076 211.852 72.6223V163.184H273.438C275.912 163.179 278.287 164.159 280.04 165.909C281.793 167.659 282.78 170.035 282.786 172.515H149.167V72.6223C149.185 64.3076 152.496 56.3403 158.374 50.4733C164.252 44.6062 172.215 41.3199 180.51 41.3373Z" fill="#3F3D56"/>
<path d="M172.989 92.9085L179.479 119.781L306.433 88.9757L299.943 62.1031C299.865 61.7745 299.705 61.4711 299.478 61.2211C299.252 60.971 298.966 60.7824 298.647 60.6727C298.412 60.5898 298.163 60.5522 297.913 60.5621L224.528 22.4755C224.098 22.2554 223.604 22.1966 223.134 22.3097C222.665 22.4229 222.251 22.7005 221.968 23.0924L186.6 72.5285L173.267 91.1704C173.243 91.2031 173.226 91.2406 173.217 91.2804C173.209 91.3201 173.209 91.3613 173.218 91.401C172.947 91.8537 172.864 92.3953 172.989 92.9085Z" fill="white"/>
<path d="M173.218 91.401C173.224 91.4359 173.237 91.4693 173.257 91.4992C173.276 91.529 173.301 91.5548 173.33 91.5751C173.364 91.5987 173.403 91.6151 173.444 91.6232C173.485 91.6313 173.527 91.6309 173.568 91.6222C173.634 91.6045 173.693 91.5641 173.732 91.5079L173.778 91.4444L174.472 90.4712L187.08 72.8537L222.437 23.4289C222.639 23.1488 222.934 22.9505 223.27 22.87C223.605 22.7895 223.958 22.8321 224.264 22.9901L297.081 60.7816L297.734 61.1216C297.761 61.1327 297.788 61.1422 297.815 61.15C297.865 61.1411 297.915 61.1363 297.965 61.1357C298.033 61.1128 298.09 61.0645 298.124 61.0008C298.142 60.9673 298.153 60.9305 298.156 60.8927C298.16 60.8549 298.156 60.8168 298.145 60.7805C298.133 60.7442 298.115 60.7105 298.091 60.6813C298.067 60.6521 298.037 60.6279 298.004 60.6102L297.913 60.5621L224.528 22.4755C224.098 22.2554 223.604 22.1966 223.134 22.3097C222.665 22.4229 222.251 22.7005 221.968 23.0924L186.6 72.5285L173.267 91.1704C173.243 91.2031 173.226 91.2406 173.217 91.2804C173.209 91.3201 173.209 91.3613 173.218 91.401Z" fill="#3F3D56"/>
<path d="M211.347 94.1412L214.173 94.4554L235.146 96.7842L249.05 98.3271L249.871 98.4187L267.221 84.8353L267.885 84.315L271.983 81.1071L286.562 69.6945L286.65 68.8929L291.835 21.981C291.906 21.335 291.718 20.6873 291.313 20.1799C290.908 19.6724 290.319 19.3466 289.675 19.2739L220.47 11.5897C219.826 11.5192 219.18 11.7075 218.674 12.1134C218.168 12.5193 217.843 13.1097 217.77 13.7554L214.113 46.846L212.084 65.1919L210.27 81.6048L209.429 89.227L209.183 91.4348C209.113 92.081 209.302 92.7287 209.707 93.236C210.113 93.7432 210.702 94.0687 211.347 94.1412Z" fill="#E6E6E6"/>
<path d="M230.364 53.0208L260.341 56.3488L270.972 57.5287C271.441 57.5808 271.916 57.5397 272.37 57.4078C272.823 57.2759 273.247 57.0558 273.615 56.7599C273.984 56.4641 274.291 56.0984 274.518 55.6837C274.746 55.269 274.89 54.8134 274.942 54.3429C274.994 53.8725 274.953 53.3964 274.821 52.9418C274.69 52.4872 274.47 52.063 274.175 51.6935C273.88 51.324 273.515 51.0163 273.101 50.7882C272.688 50.56 272.233 50.4157 271.764 50.3636L258.541 48.8957L231.158 45.8523C230.21 45.7473 229.259 46.024 228.514 46.6215C227.769 47.2191 227.292 48.0886 227.187 49.0389C227.082 49.9892 227.357 50.9425 227.953 51.6892C228.549 52.4359 229.416 52.9149 230.364 53.0208Z" fill="white"/>
<path d="M228.657 66.3127C228.734 66.3266 228.812 66.3404 228.891 66.3481L263.689 70.2122L269.499 70.8587C270.448 70.9638 271.399 70.6871 272.143 70.0893C272.888 69.4915 273.365 68.6217 273.47 67.6712C273.575 66.7207 273.299 65.7673 272.703 65.0208C272.106 64.2743 271.239 63.7959 270.29 63.6908L261.889 62.7591L234.324 59.6975L229.685 59.1823C228.757 59.0785 227.826 59.3405 227.087 59.9127C226.349 60.485 225.861 61.3227 225.728 62.2487C225.594 63.1747 225.825 64.1165 226.372 64.8749C226.919 65.6333 227.738 66.149 228.657 66.3127Z" fill="white"/>
<path d="M224.719 78.0988C225.004 78.5733 225.394 78.9756 225.86 79.2743C226.325 79.5731 226.853 79.7603 227.402 79.8213L241.665 81.4047L267.068 84.2256L267.073 84.2242L267.885 84.315L271.983 81.1071C272.009 80.8634 272.009 80.6178 271.984 80.374C271.897 79.5558 271.535 78.7916 270.956 78.2079C270.378 77.6242 269.618 77.2559 268.802 77.1641L265.273 76.7711L251.275 75.2184L241.203 74.0988L228.193 72.6535C227.526 72.5795 226.852 72.6939 226.247 72.9838C225.642 73.2737 225.13 73.7276 224.768 74.294C224.407 74.8605 224.21 75.517 224.202 76.1893C224.193 76.8616 224.372 77.5231 224.719 78.0988Z" fill="white"/>
<path d="M244.752 36.7736L252.211 37.6016L255.505 37.9683L260.482 38.5204C261.43 38.6255 262.381 38.3487 263.126 37.751C263.87 37.1532 264.348 36.2834 264.453 35.3328C264.557 34.3823 264.281 33.429 263.685 32.6825C263.089 31.936 262.221 31.4576 261.273 31.3524L245.547 29.6078C244.599 29.5022 243.648 29.7783 242.903 30.3756C242.158 30.9728 241.68 31.8422 241.575 32.7924C241.47 33.7427 241.745 34.696 242.341 35.4426C242.937 36.1892 243.804 36.6679 244.752 36.7736Z" fill="white"/>
<path d="M183.763 56.7324L192.857 94.3846L208.034 97.2772L222.073 99.9564L237.136 102.829L241.949 103.747C242.231 103.801 242.52 103.793 242.799 103.726C243.078 103.658 243.339 103.532 243.565 103.355L247.426 100.332L249.871 98.4186L267.221 84.8353L256.189 39.1582C256.08 38.7038 255.843 38.2905 255.505 37.9682C255.209 37.683 254.846 37.4771 254.45 37.3694C254.053 37.2618 253.636 37.256 253.237 37.3524L185.565 53.7731C184.934 53.9265 184.391 54.3242 184.053 54.8791C183.715 55.434 183.611 56.1005 183.763 56.7324Z" fill="#C28E5B"/>
<path d="M204.614 86.6861C204.84 87.6149 205.423 88.4162 206.237 88.9141C207.051 89.4119 208.029 89.5657 208.956 89.3416L248.665 79.7064C249.591 79.4802 250.39 78.8951 250.887 78.0793C251.383 77.2635 251.537 76.2836 251.314 75.3545C251.304 75.3084 251.291 75.263 251.275 75.2185C251.022 74.3227 250.432 73.56 249.63 73.0903C248.828 72.6207 247.875 72.4804 246.972 72.699L207.264 82.3342C206.337 82.5599 205.538 83.1449 205.041 83.9609C204.544 84.7768 204.391 85.7569 204.614 86.6861Z" fill="white"/>
<path d="M208.034 97.2773L222.073 99.9565L251.812 92.7402C252.739 92.5153 253.539 91.9304 254.036 91.1143C254.533 90.2981 254.686 89.3176 254.462 88.3883C254.237 87.4591 253.654 86.6573 252.84 86.1593C252.025 85.6613 251.047 85.5079 250.12 85.7328L210.411 95.3681C209.582 95.5678 208.851 96.0589 208.351 96.7523C208.231 96.918 208.124 97.0936 208.034 97.2773Z" fill="white"/>
<path d="M237.136 102.829L241.949 103.747C242.231 103.801 242.52 103.793 242.799 103.726C243.078 103.658 243.339 103.532 243.565 103.355L247.426 100.332L237.136 102.829Z" fill="white"/>
<path d="M212.615 66.4962C212.841 67.425 213.424 68.2263 214.238 68.7242C215.052 69.2221 216.03 69.3759 216.957 69.1518L232.337 65.4198C233.264 65.1936 234.063 64.6085 234.559 63.7927C235.056 62.977 235.209 61.9971 234.986 61.0679C234.867 60.5686 234.641 60.1012 234.324 59.6976C233.898 59.152 233.325 58.7407 232.673 58.5128C232.02 58.2849 231.316 58.2501 230.645 58.4124L215.265 62.1444C214.338 62.3694 213.538 62.9543 213.041 63.7704C212.544 64.5865 212.391 65.567 212.615 66.4962Z" fill="white"/>
<path d="M222.072 99.9562L237.137 102.83L241.949 103.748C242.23 103.801 242.52 103.793 242.798 103.726C243.077 103.658 243.338 103.532 243.564 103.356L247.428 100.333L246.072 100.662L243.21 102.9C243.048 103.026 242.862 103.116 242.663 103.164C242.464 103.212 242.257 103.218 242.056 103.18L238.493 102.501L223.428 99.6272L222.072 99.9562ZM267.072 84.2265L267.219 84.8338L267.887 84.3131L267.072 84.2265ZM222.072 99.9562L237.137 102.83L241.949 103.748C242.23 103.801 242.52 103.793 242.798 103.726C243.077 103.658 243.338 103.532 243.564 103.356L247.428 100.333L246.072 100.662L243.21 102.9C243.048 103.026 242.862 103.116 242.663 103.164C242.464 103.212 242.257 103.218 242.056 103.18L238.493 102.501L223.428 99.6272L222.072 99.9562ZM222.072 99.9562L237.137 102.83L241.949 103.748C242.23 103.801 242.52 103.793 242.798 103.726C243.077 103.658 243.338 103.532 243.564 103.356L247.428 100.333L246.072 100.662L243.21 102.9C243.048 103.026 242.862 103.116 242.663 103.164C242.464 103.212 242.257 103.218 242.056 103.18L238.493 102.501L223.428 99.6272L222.072 99.9562ZM172.989 92.9086L189.988 163.298C190.115 163.818 190.441 164.267 190.897 164.546C191.353 164.824 191.901 164.911 192.42 164.785L315.459 134.93C315.978 134.803 316.426 134.476 316.704 134.019C316.982 133.562 317.068 133.013 316.943 132.492L299.943 62.1031C299.865 61.7745 299.705 61.4711 299.478 61.2211C299.252 60.971 298.966 60.7824 298.647 60.6727C298.412 60.5898 298.163 60.5522 297.913 60.5621C297.623 60.5705 297.338 60.6456 297.081 60.7816C296.962 60.8381 296.85 60.9078 296.747 60.9895L286.649 68.893L271.984 80.3757L267.071 84.2223L267.072 84.2265L267.068 84.2275L249.051 98.3252L246.072 100.662L243.21 102.9C243.048 103.026 242.862 103.116 242.663 103.164C242.464 103.212 242.257 103.218 242.056 103.18L238.493 102.501L223.428 99.6272L208.349 96.7525L175.323 90.4528C175.042 90.3969 174.751 90.4032 174.472 90.4713C174.097 90.5632 173.756 90.7614 173.489 91.0422C173.387 91.1525 173.296 91.2727 173.218 91.401C172.947 91.8537 172.864 92.3954 172.989 92.9086ZM222.072 99.9562L237.137 102.83L241.949 103.748C242.23 103.801 242.52 103.793 242.798 103.726C243.077 103.658 243.338 103.532 243.564 103.356L247.428 100.333L246.072 100.662L243.21 102.9C243.048 103.026 242.862 103.116 242.663 103.164C242.464 103.212 242.257 103.218 242.056 103.18L238.493 102.501L223.428 99.6272L222.072 99.9562ZM222.072 99.9562L237.137 102.83L241.949 103.748C242.23 103.801 242.52 103.793 242.798 103.726C243.077 103.658 243.338 103.532 243.564 103.356L247.428 100.333L246.072 100.662L243.21 102.9C243.048 103.026 242.862 103.116 242.663 103.164C242.464 103.212 242.257 103.218 242.056 103.18L238.493 102.501L223.428 99.6272L222.072 99.9562ZM222.072 99.9562L237.137 102.83L241.949 103.748C242.23 103.801 242.52 103.793 242.798 103.726C243.077 103.658 243.338 103.532 243.564 103.356L247.428 100.333L246.072 100.662L243.21 102.9C243.048 103.026 242.862 103.116 242.663 103.164C242.464 103.212 242.257 103.218 242.056 103.18L238.493 102.501L223.428 99.6272L222.072 99.9562Z" fill="white"/>
<path d="M222.072 99.9562L237.137 102.83L241.949 103.748C242.23 103.801 242.52 103.793 242.798 103.726C243.077 103.658 243.338 103.532 243.564 103.356L247.428 100.333L246.072 100.662L243.21 102.9C243.048 103.026 242.862 103.116 242.663 103.164C242.464 103.212 242.257 103.218 242.056 103.18L238.493 102.501L223.428 99.6272L222.072 99.9562ZM267.072 84.2265L267.219 84.8338L267.887 84.313L267.072 84.2265ZM222.072 99.9562L237.137 102.83L241.949 103.748C242.23 103.801 242.52 103.793 242.798 103.726C243.077 103.658 243.338 103.532 243.564 103.356L247.428 100.333L246.072 100.662L243.21 102.9C243.048 103.026 242.862 103.116 242.663 103.164C242.464 103.212 242.257 103.218 242.056 103.18L238.493 102.501L223.428 99.6272L222.072 99.9562ZM222.072 99.9562L237.137 102.83L241.949 103.748C242.23 103.801 242.52 103.793 242.798 103.726C243.077 103.658 243.338 103.532 243.564 103.356L247.428 100.333L246.072 100.662L243.21 102.9C243.048 103.026 242.862 103.116 242.663 103.164C242.464 103.212 242.257 103.218 242.056 103.18L238.493 102.501L223.428 99.6272L222.072 99.9562ZM173.778 91.4444L173.853 91.5006C173.865 91.48 173.887 91.4617 173.904 91.4401C174.07 91.2663 174.277 91.1367 174.506 91.0628C174.735 90.989 174.979 90.9732 175.215 91.017L208.035 97.2749L222.072 99.9562L237.137 102.83L241.949 103.748C242.23 103.801 242.52 103.793 242.798 103.726C243.077 103.658 243.338 103.532 243.564 103.356L247.428 100.333L246.072 100.662L243.21 102.9C243.048 103.026 242.862 103.116 242.663 103.164C242.464 103.212 242.257 103.218 242.056 103.18L238.493 102.501L223.428 99.6272L208.349 96.7525L175.323 90.4528C175.042 90.3969 174.751 90.4032 174.472 90.4712L173.778 91.4444ZM172.989 92.9085L189.988 163.298C190.115 163.818 190.441 164.267 190.897 164.546C191.353 164.824 191.901 164.911 192.42 164.785L315.459 134.93C315.978 134.803 316.426 134.476 316.704 134.019C316.982 133.562 317.068 133.013 316.943 132.492L299.943 62.1031C299.865 61.7745 299.705 61.4711 299.478 61.2211C299.252 60.971 298.966 60.7824 298.647 60.6727C298.412 60.5898 298.163 60.5522 297.913 60.5621C297.623 60.5705 297.338 60.6456 297.081 60.7816C296.962 60.8381 296.85 60.9078 296.747 60.9895L286.649 68.893L271.984 80.3757L267.071 84.2223L267.072 84.2265L267.068 84.2275L249.051 98.3252L246.072 100.662L243.21 102.9C243.048 103.026 242.862 103.116 242.663 103.164C242.464 103.212 242.257 103.218 242.056 103.18L238.493 102.501L223.428 99.6272L208.349 96.7525L175.323 90.4528C175.042 90.3969 174.751 90.4032 174.472 90.4712C174.097 90.5632 173.756 90.7614 173.489 91.0422C173.387 91.1525 173.296 91.2727 173.218 91.401C172.947 91.8537 172.864 92.3953 172.989 92.9085ZM173.549 92.7725C173.499 92.565 173.496 92.3489 173.54 92.14C173.584 91.9311 173.674 91.7347 173.803 91.5652C173.815 91.5402 173.832 91.5182 173.853 91.5006C173.865 91.48 173.887 91.4617 173.904 91.4401C174.07 91.2663 174.277 91.1367 174.506 91.0628C174.735 90.989 174.979 90.9732 175.215 91.017L208.035 97.2749L222.072 99.9562L237.137 102.83L241.949 103.748C242.23 103.801 242.52 103.793 242.798 103.726C243.077 103.658 243.338 103.532 243.564 103.356L247.428 100.333L249.872 98.419L267.219 84.8338L267.887 84.313L271.981 81.1066L286.563 69.6923L297.105 61.4405C297.265 61.3153 297.45 61.2256 297.648 61.1776C297.703 61.1641 297.759 61.1549 297.815 61.15C297.865 61.141 297.915 61.1362 297.965 61.1357C298.133 61.1341 298.301 61.1615 298.46 61.2167C298.687 61.296 298.891 61.431 299.053 61.6093C299.215 61.7877 299.33 62.0039 299.387 62.2381L316.387 132.627C316.432 132.812 316.44 133.003 316.41 133.191C316.381 133.379 316.315 133.558 316.217 133.721C316.118 133.883 315.989 134.024 315.835 134.135C315.682 134.247 315.509 134.328 315.325 134.372L192.285 164.227C191.914 164.317 191.523 164.255 191.197 164.055C190.871 163.855 190.638 163.534 190.549 163.162L173.549 92.7725ZM222.072 99.9562L237.137 102.83L241.949 103.748C242.23 103.801 242.52 103.793 242.798 103.726C243.077 103.658 243.338 103.532 243.564 103.356L247.428 100.333L246.072 100.662L243.21 102.9C243.048 103.026 242.862 103.116 242.663 103.164C242.464 103.212 242.257 103.218 242.056 103.18L238.493 102.501L223.428 99.6272L222.072 99.9562ZM222.072 99.9562L237.137 102.83L241.949 103.748C242.23 103.801 242.52 103.793 242.798 103.726C243.077 103.658 243.338 103.532 243.564 103.356L247.428 100.333L246.072 100.662L243.21 102.9C243.048 103.026 242.862 103.116 242.663 103.164C242.464 103.212 242.257 103.218 242.056 103.18L238.493 102.501L223.428 99.6272L222.072 99.9562ZM222.072 99.9562L237.137 102.83L241.949 103.748C242.23 103.801 242.52 103.793 242.798 103.726C243.077 103.658 243.338 103.532 243.564 103.356L247.428 100.333L246.072 100.662L243.21 102.9C243.048 103.026 242.862 103.116 242.663 103.164C242.464 103.212 242.257 103.218 242.056 103.18L238.493 102.501L223.428 99.6272L222.072 99.9562Z" fill="#3F3D56"/>
<path d="M283.392 121.101C283.114 119.947 283.305 118.731 283.922 117.718C284.538 116.705 285.53 115.979 286.68 115.698L302.209 111.93C303.359 111.656 304.569 111.849 305.577 112.467C306.584 113.086 307.306 114.08 307.584 115.23C307.862 116.381 307.673 117.596 307.06 118.607C306.446 119.619 305.457 120.346 304.31 120.629L288.781 124.397C287.63 124.675 286.417 124.484 285.406 123.866C284.396 123.248 283.671 122.253 283.392 121.101Z" fill="#C28E5B"/>
<path d="M111.776 108.028C113.902 108.028 115.625 106.301 115.625 104.17C115.625 102.039 113.902 100.312 111.776 100.312C109.65 100.312 107.927 102.039 107.927 104.17C107.927 106.301 109.65 108.028 111.776 108.028Z" fill="white"/>
</g>
<defs>
<clipPath id="clip0_703_164">
<rect width="317" height="272" fill="white"/>
</clipPath>
</defs>
</svg>
